{
	"asset":{
		"generator":"Khronos glTF Blender I/O v3.5.30",
		"version":"2.0"
	},
	"extensionsUsed":[
		"KHR_materials_transmission",
		"KHR_materials_specular",
		"KHR_materials_ior"
	],
	"scene":0,
	"scenes":[
		{
			"name":"Scene",
			"nodes":[
				0
			]
		}
	],
	"nodes":[
		{
			"mesh":0,
			"name":"default",
			"rotation":[
				0.5465589165687561,
				0.3763672709465027,
				-0.3266802132129669,
				0.6729792952537537
			]
		}
	],
	"materials":[
		{
			"doubleSided":true,
			"extensions":{
				"KHR_materials_transmission":{
					"transmissionFactor":0.6763635873794556
				},
				"KHR_materials_specular":{
					"specularColorFactor":[
						0.681447630633064,
						0.681447630633064,
						0.681447630633064
					]
				},
				"KHR_materials_ior":{
					"ior":0
				}
			},
			"name":"Pink",
			"pbrMetallicRoughness":{
				"baseColorFactor":[
					0.6781682372093201,
					0.6781682372093201,
					0.6781682372093201,
					0.30909091234207153
				],
				"metallicFactor":0.8509091138839722,
				"roughnessFactor":0.3181988596916199
			}
		},
		{
			"doubleSided":true,
			"extensions":{
				"KHR_materials_specular":{
					"specularColorFactor":[
						2.371357614441398,
						2.371357614441398,
						2.371357614441398
					]
				},
				"KHR_materials_ior":{
					"ior":1.4500000476837158
				}
			},
			"name":"Red",
			"pbrMetallicRoughness":{
				"baseColorFactor":[
					1,
					0.9029051065444946,
					0.9029051065444946,
					1
				],
				"roughnessFactor":0.4527442753314972
			}
		}
	],
	"meshes":[
		{
			"name":"default-mesh",
			"primitives":[
				{
					"attributes":{
						"POSITION":0,
						"NORMAL":1
					},
					"indices":2,
					"material":0
				},
				{
					"attributes":{
						"POSITION":3,
						"NORMAL":4
					},
					"indices":5,
					"material":1
				}
			]
		}
	],
	"accessors":[
		{
			"bufferView":0,
			"componentType":5126,
			"count":14446,
			"max":[
				3.362799882888794,
				2.6426000595092773,
				1.6778000593185425
			],
			"min":[
				-3.036099910736084,
				-2.6447999477386475,
				-3.9310998916625977
			],
			"type":"VEC3"
		},
		{
			"bufferView":1,
			"componentType":5126,
			"count":14446,
			"type":"VEC3"
		},
		{
			"bufferView":2,
			"componentType":5123,
			"count":84522,
			"type":"SCALAR"
		},
		{
			"bufferView":3,
			"componentType":5126,
			"count":1318,
			"max":[
				2.9723000526428223,
				0.0763000026345253,
				0.2653000056743622
			],
			"min":[
				-3.0367000102996826,
				-2.40310001373291,
				-3.3280999660491943
			],
			"type":"VEC3"
		},
		{
			"bufferView":4,
			"componentType":5126,
			"count":1318,
			"type":"VEC3"
		},
		{
			"bufferView":5,
			"componentType":5123,
			"count":5439,
			"type":"SCALAR"
		}
	],
	"bufferViews":[
		{
			"buffer":0,
			"byteLength":173352,
			"byteOffset":0,
			"target":34962
		},
		{
			"buffer":0,
			"byteLength":173352,
			"byteOffset":173352,
			"target":34962
		},
		{
			"buffer":0,
			"byteLength":169044,
			"byteOffset":346704,
			"target":34963
		},
		{
			"buffer":0,
			"byteLength":15816,
			"byteOffset":515748,
			"target":34962
		},
		{
			"buffer":0,
			"byteLength":15816,
			"byteOffset":531564,
			"target":34962
		},
		{
			"buffer":0,
			"byteLength":10878,
			"byteOffset":547380,
			"target":34963
		}
	],
	"buffers":[
		{
			"byteLength":558260,
			"uri":"brain-simple-mesh22.bin"
		}
	]
}
